<svg xmlns="http://www.w3.org/2000/svg" viewBox="0 0 24 24">
  <path fill="#ffffff" d="M3.4,10.9h0.9v0.4c0.2-0.3,0.4-0.4,0.7-0.4c0.5,0,0.9,0.3,0.9,1v1.8H5v-1.6c0-0.3-0.1-0.4-0.3-0.4c-0.2,0-0.4,0.2-0.4,0.5v1.5H3.4V10.9z"/>
  <path fill="#ffffff" d="M9.2,12.1c0-0.9,0.4-1.4,1.1-1.4c0.3,0,0.5,0.1,0.6,0.3v-0.2h0.9v2.7c0,0.7-0.5,1.1-1.3,1.1c-0.7,0-1.2-0.3-1.3-1h0.9c0,0.2,0.2,0.3,0.4,0.3c0.2,0,0.3-0.1,0.3-0.4v-0.4c-0.2,0.2-0.4,0.3-0.6,0.3C9.6,13.5,9.2,13,9.2,12.1z M10.9,12.1c0-0.4-0.1-0.6-0.4-0.6c-0.2,0-0.4,0.2-0.4,0.6s0.1,0.6,0.4,0.6C10.8,12.7,10.9,12.5,10.9,12.1z"/>
  <path fill="#ffffff" d="M12.1,12.2c0-0.9,0.5-1.4,1.4-1.4c0.8,0,1.4,0.5,1.4,1.4c0,0.9-0.5,1.4-1.4,1.4C12.7,13.6,12.1,13.1,12.1,12.2z M13.9,12.2c0-0.4-0.1-0.7-0.4-0.7s-0.4,0.2-0.4,0.7c0,0.4,0.1,0.7,0.4,0.7S13.9,12.6,13.9,12.2z"/>
  <path fill="#ffffff" d="M15,12.2c0-0.9,0.5-1.4,1.4-1.4c0.8,0,1.4,0.5,1.4,1.4c0,0.9-0.5,1.4-1.4,1.4C15.6,13.6,15,13.1,15,12.2z M16.8,12.2c0-0.4-0.1-0.7-0.4-0.7S16,11.8,16,12.2c0,0.4,0.1,0.7,0.4,0.7S16.8,12.6,16.8,12.2z"/>
  <path fill="#ffffff" d="M18,10.9H19v0.4c0.2-0.3,0.4-0.4,0.7-0.4c0.5,0,0.9,0.3,0.9,1v1.8h-0.9v-1.6c0-0.3-0.1-0.4-0.3-0.4c-0.2,0-0.4,0.2-0.4,0.5v1.5H18V10.9z"/>
</svg>
